<?xml version="1.0" encoding="UTF-8"?><svg xmlns="http://www.w3.org/2000/svg" xmlns:xlink="http://www.w3.org/1999/xlink" height="81.9" preserveAspectRatio="xMidYMid meet" version="1.0" viewBox="-3.1 -1.3 411.1 81.9" width="411.1" zoomAndPan="magnify"><g id="change1_1"><path d="M407.1488,38.1424c-0.0879-0.0754-0.1841-0.1489-0.2974-0.2175c-17.8745-10.8276-34.6335-23.2783-50.1426-37.2866 c-2.1777-1.967-9.4595,1.0496-7.145,3.1399c13.8223,12.4849,28.6272,23.7898,44.3066,33.8147 c-57.2498-2.2646-114.5396-3.498-171.833-3.6899c-40.9521-2.3218-81.9221-4.207-122.9509-4.689 c-28.3083-0.3323-56.6194-0.002-84.9055,1.1873c-2.2661,0.0955-8.3708,3.6394-3.2627,3.4246 c46.6006-1.9595,93.1609-1.3904,139.6943,0.3757c-19.5403,0.2305-39.0796,0.5801-58.6157,1.0547 c-28.9253,0.7026-57.8433,1.6782-86.7505,2.9087c-2.2656,0.0964-8.3706,3.6418-3.2627,3.4243 c71.2275-3.0315,142.5208-4.4595,213.811-4.2651c30.324,1.6924,60.6396,3.6294,90.9507,5.4448 c22.6353,1.3555,45.2771,2.6057,67.9292,3.6436c-6.082,2.5596-12.0085,5.5498-17.7959,9.0044 c-12.1851,7.2739-23.6582,15.6597-37.3118,20.0552c-2.2942,0.7261-3.1685,2.1802-2.8806,3.261 c0.2732,1.0806,1.6997,1.7905,4.0327,1.0393c29.9409-9.4756,58.6067-22.3711,85.5344-38.5342 c0.4771-0.2861,0.9065-0.7129,1.1633-1.1816C407.9128,39.4444,407.9677,38.776,407.1488,38.1424z M292.912,38.1725 c4.4868,0.0867,8.9736,0.1714,13.4604,0.271c27.813,0.6167,55.6194,1.4905,83.417,2.5955 c-2.2317,0.6553-4.4436,1.3591-6.6333,2.1189C353.0617,41.8016,322.9853,40.0209,292.912,38.1725z M356.8178,61.1241 c9.3535-5.8477,18.9685-10.6672,29.1455-14.2139c0.2432,0.0103,0.4866,0.022,0.7297,0.0322 c-10.3723,5.6245-20.9968,10.761-31.8347,15.4065C355.5111,61.9413,356.164,61.5331,356.8178,61.1241z" fill="inherit"/></g></svg>